<svg width="4086" height="1024" viewBox="0 0 4086 1024" fill="none" xmlns="http://www.w3.org/2000/svg">
<g clip-path="url(#clip0_41_127)">
<rect width="4086" height="1024" fill="#111111"/>
<path d="M172 178.095L288.007 124M172 306.095L288.007 252M114 97.0476L172.004 70M172.007 178.095L56 124V252L114.004 279.048M172 70L288.007 124.095M172 178V306M288 188L288 252" stroke="white" stroke-opacity="0.05" stroke-width="16" stroke-linecap="round"/>
<path d="M839 578.095L955.007 524M839 706.095L955.007 652M781 497.048L839.004 470M839.007 578.095L723 524V652L781.004 679.048M839 470L955.007 524.095M839 578V706M955 588L955 652" stroke="white" stroke-opacity="0.05" stroke-width="16" stroke-linecap="round"/>
<path d="M512 853.095L628.007 799M512 981.095L628.007 927M454 772.048L512.004 745M512.007 853.095L396 799V927L454.004 954.048M512 745L628.007 799.095M512 853V981M628 863L628 927" stroke="white" stroke-opacity="0.05" stroke-width="16" stroke-linecap="round"/>
<circle cx="809" cy="70" r="256" fill="white" fill-opacity="0.05"/>
<circle cx="231" cy="512" r="128" fill="white" fill-opacity="0.05"/>
<circle cx="44" cy="954" r="128" fill="white" fill-opacity="0.05"/>
<rect x="2310" width="1776" height="1024" fill="#0055BB"/>
<rect x="1990" y="70" width="256" height="256" fill="#0055BB"/>
<rect x="2003" y="730" width="256" height="256" fill="#0055BB"/>
<rect x="1952" y="393" width="256" height="256" fill="#0055BB"/>
<rect x="1760" y="60" width="128" height="128" fill="#0055BB"/>
<rect x="1783" y="246" width="128" height="128" fill="#0055BB"/>
<rect x="1755" y="491" width="128" height="128" fill="#0055BB"/>
<path d="M1824 744.5H1952V872.5H1824V744.5Z" fill="#0055BB"/>
<rect x="1779" y="954" width="128" height="128" fill="#0055BB"/>
<rect x="1655" y="681" width="128" height="128" fill="#0055BB"/>
<rect x="1527" y="342" width="64" height="64" fill="#0055BB"/>
<rect x="1568" y="238" width="64" height="64" fill="#0055BB"/>
<rect x="1664" y="351" width="64" height="64" fill="#0055BB"/>
<rect x="1559" y="28" width="64" height="64" fill="#0055BB"/>
<rect x="1623" y="134" width="64" height="64" fill="#0055BB"/>
<rect x="1495" y="524" width="64" height="64" fill="#0055BB"/>
<rect x="1581" y="459" width="64" height="64" fill="#0055BB"/>
<rect x="1645" y="542" width="64" height="64" fill="#0055BB"/>
<rect x="1536" y="625" width="64" height="64" fill="#0055BB"/>
<rect x="1536" y="725" width="64" height="64" fill="#0055BB"/>
<rect x="1632" y="890" width="64" height="64" fill="#0055BB"/>
<rect x="1664" y="970" width="64" height="64" fill="#0055BB"/>
<rect x="1664" y="-4" width="64" height="64" fill="#0055BB"/>
<rect x="1723" y="874" width="64" height="64" fill="#0055BB"/>
<rect x="1495" y="858" width="64" height="64" fill="#0055BB"/>
<rect x="1549" y="946" width="64" height="64" fill="#0055BB"/>
<rect x="1417" y="762" width="64" height="64" fill="#0055BB"/>
<rect x="1399" y="622" width="64" height="64" fill="#0055BB"/>
<rect x="1353" y="448" width="64" height="64" fill="#0055BB"/>
<rect x="1417" y="326" width="64" height="64" fill="#0055BB"/>
<rect x="1367" y="198" width="64" height="64" fill="#0055BB"/>
<rect x="1449" y="116" width="64" height="64" fill="#0055BB"/>
<rect x="1393" y="-6" width="64" height="64" fill="#0055BB"/>
<rect x="1303" y="38" width="32" height="32" fill="#0055BB"/>
<rect x="1346" y="106" width="32" height="32" fill="#0055BB"/>
<rect x="1243" y="122" width="32" height="32" fill="#0055BB"/>
<rect x="1275" y="182" width="32" height="32" fill="#0055BB"/>
<rect x="1203" y="182" width="16" height="16" fill="#0055BB"/>
<rect x="1203" y="138" width="16" height="16" fill="#0055BB"/>
<rect x="1233" y="87" width="16" height="16" fill="#0055BB"/>
<rect x="1191" y="46" width="16" height="16" fill="#0055BB"/>
<rect x="1233" y="30" width="16" height="16" fill="#0055BB"/>
<rect x="1267" y="4" width="16" height="16" fill="#0055BB"/>
<rect x="1267" y="71" width="16" height="16" fill="#0055BB"/>
<rect x="1238" y="198" width="16" height="16" fill="#0055BB"/>
<rect x="1203" y="230" width="16" height="16" fill="#0055BB"/>
<rect x="1175" y="214" width="16" height="16" fill="#0055BB"/>
<rect x="1159" y="254" width="16" height="16" fill="#0055BB"/>
<rect x="1195" y="265" width="16" height="16" fill="#0055BB"/>
<rect x="1156" y="301" width="16" height="16" fill="#0055BB"/>
<rect x="1191" y="309" width="16" height="16" fill="#0055BB"/>
<rect x="1219" y="325" width="16" height="16" fill="#0055BB"/>
<rect x="1233" y="358" width="16" height="16" fill="#0055BB"/>
<rect x="1191" y="366" width="16" height="16" fill="#0055BB"/>
<rect x="1148" y="353" width="16" height="16" fill="#0055BB"/>
<rect x="1167" y="398" width="16" height="16" fill="#0055BB"/>
<rect x="1143" y="427" width="16" height="16" fill="#0055BB"/>
<rect x="1175" y="435" width="16" height="16" fill="#0055BB"/>
<rect x="1199" y="458" width="16" height="16" fill="#0055BB"/>
<rect x="1215" y="496" width="16" height="16" fill="#0055BB"/>
<rect x="1172" y="504" width="16" height="16" fill="#0055BB"/>
<rect x="1132" y="474" width="16" height="16" fill="#0055BB"/>
<rect x="1113" y="508" width="16" height="16" fill="#0055BB"/>
<rect x="1140" y="524" width="16" height="16" fill="#0055BB"/>
<rect x="1183" y="566" width="16" height="16" fill="#0055BB"/>
<rect x="1148" y="582" width="16" height="16" fill="#0055BB"/>
<rect x="1124" y="598" width="16" height="16" fill="#0055BB"/>
<rect x="1159" y="620" width="16" height="16" fill="#0055BB"/>
<rect x="1129" y="638" width="16" height="16" fill="#0055BB"/>
<rect x="1113" y="662" width="16" height="16" fill="#0055BB"/>
<rect x="1171" y="693" width="16" height="16" fill="#0055BB"/>
<rect x="1207" y="714" width="16" height="16" fill="#0055BB"/>
<rect x="1187" y="754" width="16" height="16" fill="#0055BB"/>
<rect x="1137" y="778" width="16" height="16" fill="#0055BB"/>
<rect x="1175" y="799" width="16" height="16" fill="#0055BB"/>
<rect x="1211" y="812" width="16" height="16" fill="#0055BB"/>
<rect x="1175" y="836" width="16" height="16" fill="#0055BB"/>
<rect x="1207" y="641" width="16" height="16" fill="#0055BB"/>
<rect x="1086" y="749" width="16" height="16" fill="#0055BB"/>
<rect x="1078" y="898" width="16" height="16" fill="#0055BB"/>
<rect x="1140" y="882" width="16" height="16" fill="#0055BB"/>
<rect x="1097" y="828" width="16" height="16" fill="#0055BB"/>
<rect x="1195" y="922" width="16" height="16" fill="#0055BB"/>
<rect x="1271" y="906" width="16" height="16" fill="#0055BB"/>
<rect x="1295" y="938" width="16" height="16" fill="#0055BB"/>
<rect x="1116" y="994" width="16" height="16" fill="#0055BB"/>
<rect x="1108" y="946" width="16" height="16" fill="#0055BB"/>
<rect x="1167" y="978" width="16" height="16" fill="#0055BB"/>
<rect x="1156" y="930" width="16" height="16" fill="#0055BB"/>
<rect x="1129" y="714" width="16" height="16" fill="#0055BB"/>
<rect x="1179" y="116" width="16" height="16" fill="#0055BB"/>
<rect x="1156" y="28" width="16" height="16" fill="#0055BB"/>
<rect x="1137" y="150" width="16" height="16" fill="#0055BB"/>
<rect x="1086" y="257" width="16" height="16" fill="#0055BB"/>
<rect x="1065" y="334" width="16" height="16" fill="#0055BB"/>
<rect x="1120" y="309" width="16" height="16" fill="#0055BB"/>
<rect x="1078" y="422" width="16" height="16" fill="#0055BB"/>
<rect x="1065" y="534" width="16" height="16" fill="#0055BB"/>
<rect x="1049" y="625" width="16" height="16" fill="#0055BB"/>
<rect x="1051" y="709" width="16" height="16" fill="#0055BB"/>
<rect x="1015" y="786" width="16" height="16" fill="#0055BB"/>
<rect x="1041" y="828" width="16" height="16" fill="#0055BB"/>
<rect x="1035" y="906" width="16" height="16" fill="#0055BB"/>
<rect x="1067" y="965" width="16" height="16" fill="#0055BB"/>
<rect x="1227" y="262" width="32" height="32" fill="#0055BB"/>
<rect x="1271" y="334" width="32" height="32" fill="#0055BB"/>
<rect x="1311" y="293" width="32" height="32" fill="#0055BB"/>
<rect x="1211" y="398" width="32" height="32" fill="#0055BB"/>
<rect x="1259" y="464" width="32" height="32" fill="#0055BB"/>
<rect x="1227" y="534" width="32" height="32" fill="#0055BB"/>
<rect x="1303" y="588" width="32" height="32" fill="#0055BB"/>
<rect x="1255" y="638" width="32" height="32" fill="#0055BB"/>
<rect x="1307" y="693" width="32" height="32" fill="#0055BB"/>
<rect x="1339" y="757" width="32" height="32" fill="#0055BB"/>
<rect x="1275" y="812" width="32" height="32" fill="#0055BB"/>
<rect x="1339" y="858" width="32" height="32" fill="#0055BB"/>
<rect x="1243" y="954" width="32" height="32" fill="#0055BB"/>
<rect x="1371" y="922" width="32" height="32" fill="#0055BB"/>
<rect x="1433" y="965" width="32" height="32" fill="#0055BB"/>
<rect x="1425" y="890" width="32" height="32" fill="#0055BB"/>
<rect x="1323" y="390" width="32" height="32" fill="#0055BB"/>
</g>
<defs>
<clipPath id="clip0_41_127">
<rect width="4086" height="1024" fill="white"/>
</clipPath>
</defs>
</svg>
