<svg width="271" height="38" viewBox="0 0 271 38" fill="none" xmlns="http://www.w3.org/2000/svg">
<path d="M28.0938 30.625C28.3438 30.5 28.7188 30.4375 29.2188 30.4375C29.7188 30.4375 30.1562 30.6458 30.5312 31.0625C30.9062 31.4375 31.0938 31.875 31.0938 32.375C31.0938 33.2917 30.6979 33.9583 29.9062 34.375C28.3229 35.2917 26.6146 36.0417 24.7812 36.625C22.9896 37.2083 20.8021 37.5 18.2188 37.5C15.6771 37.5 13.3021 37.0833 11.0938 36.25C8.92708 35.4167 7.05208 34.2083 5.46875 32.625C2.05208 29.2917 0.34375 24.7917 0.34375 19.125C0.34375 13.5 2.05208 9 5.46875 5.625C8.76042 2.375 13.0312 0.75 18.2812 0.75C20.8229 0.75 22.9896 1.0625 24.7812 1.6875C26.6146 2.3125 28.0104 2.89583 28.9688 3.4375C29.9271 3.9375 30.5104 4.35417 30.7188 4.6875C30.9688 4.97917 31.0938 5.375 31.0938 5.875C31.0938 6.375 30.9062 6.83333 30.5312 7.25C30.1562 7.625 29.7188 7.8125 29.2188 7.8125C28.7604 7.8125 28.3854 7.75 28.0938 7.625C26.7188 6.875 25.3021 6.29167 23.8438 5.875C22.4271 5.41667 20.6562 5.1875 18.5312 5.1875C16.4062 5.1875 14.4688 5.5625 12.7188 6.3125C11.0104 7.02083 9.57292 8 8.40625 9.25C6.11458 11.75 4.98958 15.0417 5.03125 19.125C5.03125 23.2083 6.15625 26.5 8.40625 29C10.9062 31.7083 14.3438 33.0625 18.7188 33.0625C20.7188 33.0625 22.4271 32.8542 23.8438 32.4375C25.3021 31.9792 26.7188 31.375 28.0938 30.625Z" fill="#111111"/>
<path d="M64.9062 1C65.5312 1 66.0729 1.22917 66.5312 1.6875C67.0312 2.14583 67.2812 2.70833 67.2812 3.375V23.625C67.2812 28.0833 65.6771 31.5833 62.4688 34.125C59.7188 36.375 56.4062 37.5 52.5312 37.5C48.6146 37.5 45.3021 36.375 42.5938 34.125C39.4271 31.5417 37.8438 28.0417 37.8438 23.625V3.375C37.8438 2.75 38.0729 2.20833 38.5312 1.75C38.9896 1.25 39.5312 1 40.1562 1C40.7812 1 41.3229 1.22917 41.7812 1.6875C42.2812 2.14583 42.5312 2.70833 42.5312 3.375V23.75C42.5312 26.7917 43.5729 29.1667 45.6562 30.875C47.5729 32.4583 49.8646 33.25 52.5312 33.25C55.2396 33.25 57.5521 32.4583 59.4688 30.875C61.5521 29.125 62.5938 26.75 62.5938 23.75V3.375C62.5938 2.75 62.8229 2.20833 63.2812 1.75C63.7396 1.25 64.2812 1 64.9062 1Z" fill="#111111"/>
<path d="M102.719 10.5625C102.719 14.2708 101.052 16.875 97.7188 18.375C100.969 19.4583 103.115 21.2708 104.156 23.8125C104.531 24.7708 104.719 25.9167 104.719 27.25C104.719 28.5417 104.469 29.8125 103.969 31.0625C103.51 32.2708 102.76 33.3333 101.719 34.25C99.5104 36.0833 96.1146 37 91.5312 37H79.1562C78.5312 37 77.9896 36.7708 77.5312 36.3125C77.0729 35.8542 76.8438 35.3125 76.8438 34.6875V3.625C76.8438 3 77.0729 2.45833 77.5312 2C77.9896 1.5 78.5312 1.25 79.1562 1.25H91.2812C95.0312 1.25 97.8646 2.125 99.7812 3.875C101.74 5.58333 102.719 7.8125 102.719 10.5625ZM98.2812 10.875C98.2812 9.29167 97.6354 8.02083 96.3438 7.0625C95.0938 6.10417 93.2812 5.625 90.9062 5.625H81.5312V16.6875H90.0312C94.4479 16.6875 97.0729 15.5208 97.9062 13.1875C98.1562 12.4792 98.2812 11.7083 98.2812 10.875ZM91.0938 32.625C95.9271 32.625 98.8229 31.4583 99.7812 29.125C100.073 28.375 100.219 27.5833 100.219 26.75C100.219 24.7083 99.4479 23.2292 97.9062 22.3125C96.3646 21.3542 94.1146 20.875 91.1562 20.875H81.5312V32.625H91.0938Z" fill="#111111"/>
<path d="M135.156 32.625C135.74 32.625 136.24 32.8542 136.656 33.3125C137.115 33.7292 137.344 34.25 137.344 34.875C137.344 35.4583 137.115 35.9583 136.656 36.375C136.24 36.7917 135.74 37 135.156 37H114.594C113.969 37 113.427 36.7708 112.969 36.3125C112.51 35.8542 112.281 35.3125 112.281 34.6875V3.625C112.281 3 112.51 2.45833 112.969 2C113.427 1.5 113.969 1.25 114.594 1.25H135.156C135.74 1.25 136.24 1.47917 136.656 1.9375C137.115 2.35417 137.344 2.85417 137.344 3.4375C137.344 4.02083 137.115 4.54167 136.656 5C136.24 5.41667 135.74 5.625 135.156 5.625H116.969V16.9375H133.281C133.865 16.9375 134.365 17.1458 134.781 17.5625C135.24 17.9792 135.469 18.5 135.469 19.125C135.469 19.7083 135.26 20.2292 134.844 20.6875C134.427 21.1042 133.906 21.3125 133.281 21.3125H116.969V32.625H135.156Z" fill="#111111"/>
<path d="M172.781 34.9375C172.781 35.5625 172.552 36.1042 172.094 36.5625C171.677 37.0208 171.115 37.25 170.406 37.25C169.74 37.25 169.177 37.0417 168.719 36.625C168.302 36.2083 168.094 35.6458 168.094 34.9375V33.375C168.094 30.625 167.781 28.6042 167.156 27.3125C166.573 26.0208 165.74 25 164.656 24.25C163.615 23.4583 162.115 23.0625 160.156 23.0625H149.594V34.9375C149.594 35.5625 149.365 36.1042 148.906 36.5625C148.448 37.0208 147.885 37.25 147.219 37.25C146.594 37.25 146.052 37.0208 145.594 36.5625C145.135 36.1042 144.906 35.5625 144.906 34.9375V3.625C144.906 3 145.135 2.45833 145.594 2C146.052 1.5 146.594 1.25 147.219 1.25H159.156C163.823 1.25 167.365 2.25 169.781 4.25C172.031 6.125 173.135 8.58333 173.094 11.625C173.094 13.5833 172.531 15.4375 171.406 17.1875C170.323 18.8958 168.635 20.125 166.344 20.875C168.802 21.5 170.594 23.2917 171.719 26.25C172.469 28.1667 172.823 30.2917 172.781 32.625V34.9375ZM158.844 18.625C161.719 18.625 164.031 18.0833 165.781 17C167.531 15.875 168.406 14.2083 168.406 12C168.406 9.95833 167.719 8.41667 166.344 7.375C164.719 6.20833 162.135 5.625 158.594 5.625H149.594V18.625H158.844Z" fill="#111111"/>
<path d="M203.656 2.1875C204.156 1.39583 204.781 1 205.531 1C206.323 1 206.927 1.22917 207.344 1.6875C207.76 2.14583 207.969 2.66667 207.969 3.25C207.969 3.83333 207.823 4.33333 207.531 4.75L195.281 21.875V34.9375C195.281 35.5625 195.052 36.1042 194.594 36.5625C194.135 37.0208 193.594 37.25 192.969 37.25C192.344 37.25 191.781 37.0208 191.281 36.5625C190.823 36.1042 190.594 35.5625 190.594 34.9375V21.875L178.344 4.75C178.094 4.33333 177.969 3.83333 177.969 3.25C177.969 2.66667 178.156 2.14583 178.531 1.6875C178.948 1.22917 179.531 1 180.281 1C181.073 1 181.74 1.39583 182.281 2.1875L192.969 17.75L203.656 2.1875Z" fill="#111111"/>
<path d="M225.156 33.125C231.115 33.125 234.115 31.1458 234.156 27.1875C234.156 25.5625 233.01 24.2708 230.719 23.3125C229.719 22.8958 228.552 22.5208 227.219 22.1875C225.927 21.8542 224.615 21.5 223.281 21.125C221.948 20.75 220.615 20.3333 219.281 19.875C217.948 19.375 216.781 18.75 215.781 18C213.531 16.2917 212.385 14.0417 212.344 11.25C212.344 8.25 213.49 5.79167 215.781 3.875C218.24 1.79167 221.531 0.75 225.656 0.75C229.406 0.75 232.781 1.3125 235.781 2.4375C236.74 2.77083 237.24 3.45833 237.281 4.5C237.281 5 237.094 5.47917 236.719 5.9375C236.385 6.39583 235.99 6.625 235.531 6.625C235.115 6.625 234.531 6.5 233.781 6.25C231.531 5.45833 228.99 5.0625 226.156 5.0625C223.531 5.0625 221.365 5.5625 219.656 6.5625C217.906 7.60417 217.031 9.04167 217.031 10.875C217.031 12.7917 218.156 14.2708 220.406 15.3125C221.448 15.7708 222.615 16.1667 223.906 16.5C225.198 16.7917 226.531 17.1042 227.906 17.4375C229.281 17.7708 230.594 18.1875 231.844 18.6875C233.135 19.1458 234.302 19.7292 235.344 20.4375C237.594 22.0625 238.74 24.4375 238.781 27.5625C238.781 30.4792 237.594 32.8542 235.219 34.6875C232.802 36.5625 229.615 37.5 225.656 37.5C221.323 37.5 217.26 36.6875 213.469 35.0625C213.094 34.8958 212.76 34.625 212.469 34.25C212.177 33.8333 212.031 33.375 212.031 32.875C212.031 32.375 212.219 31.9167 212.594 31.5C212.969 31.0417 213.385 30.8125 213.844 30.8125C214.344 30.8125 214.948 30.9792 215.656 31.3125C216.406 31.6458 217.615 32.0417 219.281 32.5C220.948 32.9167 222.906 33.125 225.156 33.125Z" fill="#111111"/>
<path d="M268.719 32.625C269.302 32.625 269.802 32.8542 270.219 33.3125C270.677 33.7292 270.906 34.25 270.906 34.875C270.906 35.4583 270.677 35.9583 270.219 36.375C269.802 36.7917 269.302 37 268.719 37H248.156C247.531 37 246.99 36.7708 246.531 36.3125C246.073 35.8542 245.844 35.3125 245.844 34.6875V3.625C245.844 3 246.073 2.45833 246.531 2C246.99 1.5 247.531 1.25 248.156 1.25H268.719C269.302 1.25 269.802 1.47917 270.219 1.9375C270.677 2.35417 270.906 2.85417 270.906 3.4375C270.906 4.02083 270.677 4.54167 270.219 5C269.802 5.41667 269.302 5.625 268.719 5.625H250.531V16.9375H266.844C267.427 16.9375 267.927 17.1458 268.344 17.5625C268.802 17.9792 269.031 18.5 269.031 19.125C269.031 19.7083 268.823 20.2292 268.406 20.6875C267.99 21.1042 267.469 21.3125 266.844 21.3125H250.531V32.625H268.719Z" fill="#111111"/>
</svg>
