<svg width="1084" height="147" viewBox="0 0 1084 147" fill="none" xmlns="http://www.w3.org/2000/svg">
<path d="M111.875 119.5C112.875 119 114.375 118.75 116.375 118.75C118.375 118.75 120.125 119.583 121.625 121.25C123.125 122.75 123.875 124.5 123.875 126.5C123.875 130.167 122.292 132.833 119.125 134.5C112.792 138.167 105.958 141.167 98.625 143.5C91.4583 145.833 82.7083 147 72.375 147C62.2083 147 52.7083 145.333 43.875 142C35.2083 138.667 27.7083 133.833 21.375 127.5C7.70833 114.167 0.875 96.1667 0.875 73.5C0.875 51 7.70833 33 21.375 19.5C34.5417 6.5 51.625 0 72.625 0C82.7917 0 91.4583 1.25 98.625 3.75C105.958 6.25 111.542 8.58333 115.375 10.75C119.208 12.75 121.542 14.4167 122.375 15.75C123.375 16.9167 123.875 18.5 123.875 20.5C123.875 22.5 123.125 24.3333 121.625 26C120.125 27.5 118.375 28.25 116.375 28.25C114.542 28.25 113.042 28 111.875 27.5C106.375 24.5 100.708 22.1667 94.875 20.5C89.2083 18.6667 82.125 17.75 73.625 17.75C65.125 17.75 57.375 19.25 50.375 22.25C43.5417 25.0833 37.7917 29 33.125 34C23.9583 44 19.4583 57.1667 19.625 73.5C19.625 89.8333 24.125 103 33.125 113C43.125 123.833 56.875 129.25 74.375 129.25C82.375 129.25 89.2083 128.417 94.875 126.75C100.708 124.917 106.375 122.5 111.875 119.5ZM259.125 1C261.625 1 263.792 1.91667 265.625 3.75C267.625 5.58333 268.625 7.83333 268.625 10.5V91.5C268.625 109.333 262.208 123.333 249.375 133.5C238.375 142.5 225.125 147 209.625 147C193.958 147 180.708 142.5 169.875 133.5C157.208 123.167 150.875 109.167 150.875 91.5V10.5C150.875 8 151.792 5.83333 153.625 4C155.458 2 157.625 1 160.125 1C162.625 1 164.792 1.91667 166.625 3.75C168.625 5.58333 169.625 7.83333 169.625 10.5V92C169.625 104.167 173.792 113.667 182.125 120.5C189.792 126.833 198.958 130 209.625 130C220.458 130 229.708 126.833 237.375 120.5C245.708 113.5 249.875 104 249.875 92V10.5C249.875 8 250.792 5.83333 252.625 4C254.458 2 256.625 1 259.125 1ZM410.375 39.25C410.375 54.0833 403.708 64.5 390.375 70.5C403.375 74.8333 411.958 82.0833 416.125 92.25C417.625 96.0833 418.375 100.667 418.375 106C418.375 111.167 417.375 116.25 415.375 121.25C413.542 126.083 410.542 130.333 406.375 134C397.542 141.333 383.958 145 365.625 145H316.125C313.625 145 311.458 144.083 309.625 142.25C307.792 140.417 306.875 138.25 306.875 135.75V11.5C306.875 9 307.792 6.83333 309.625 5C311.458 3 313.625 2 316.125 2H364.625C379.625 2 390.958 5.5 398.625 12.5C406.458 19.3333 410.375 28.25 410.375 39.25ZM392.625 40.5C392.625 34.1667 390.042 29.0833 384.875 25.25C379.875 21.4167 372.625 19.5 363.125 19.5H325.625V63.75H359.625C377.292 63.75 387.792 59.0833 391.125 49.75C392.125 46.9167 392.625 43.8333 392.625 40.5ZM363.875 127.5C383.208 127.5 394.792 122.833 398.625 113.5C399.792 110.5 400.375 107.333 400.375 104C400.375 95.8333 397.292 89.9167 391.125 86.25C384.958 82.4167 375.958 80.5 364.125 80.5H325.625V127.5H363.875ZM540.125 127.5C542.458 127.5 544.458 128.417 546.125 130.25C547.958 131.917 548.875 134 548.875 136.5C548.875 138.833 547.958 140.833 546.125 142.5C544.458 144.167 542.458 145 540.125 145H457.875C455.375 145 453.208 144.083 451.375 142.25C449.542 140.417 448.625 138.25 448.625 135.75V11.5C448.625 9 449.542 6.83333 451.375 5C453.208 3 455.375 2 457.875 2H540.125C542.458 2 544.458 2.91667 546.125 4.75C547.958 6.41667 548.875 8.41667 548.875 10.75C548.875 13.0833 547.958 15.1667 546.125 17C544.458 18.6667 542.458 19.5 540.125 19.5H467.375V64.75H532.625C534.958 64.75 536.958 65.5833 538.625 67.25C540.458 68.9167 541.375 71 541.375 73.5C541.375 75.8333 540.542 77.9167 538.875 79.75C537.208 81.4167 535.125 82.25 532.625 82.25H467.375V127.5H540.125ZM690.625 136.75C690.625 139.25 689.708 141.417 687.875 143.25C686.208 145.083 683.958 146 681.125 146C678.458 146 676.208 145.167 674.375 143.5C672.708 141.833 671.875 139.583 671.875 136.75V130.5C671.875 119.5 670.625 111.417 668.125 106.25C665.792 101.083 662.458 97 658.125 94C653.958 90.8333 647.958 89.25 640.125 89.25H597.875V136.75C597.875 139.25 596.958 141.417 595.125 143.25C593.292 145.083 591.042 146 588.375 146C585.875 146 583.708 145.083 581.875 143.25C580.042 141.417 579.125 139.25 579.125 136.75V11.5C579.125 9 580.042 6.83333 581.875 5C583.708 3 585.875 2 588.375 2H636.125C654.792 2 668.958 6 678.625 14C687.625 21.5 692.042 31.3333 691.875 43.5C691.875 51.3333 689.625 58.75 685.125 65.75C680.792 72.5833 674.042 77.5 664.875 80.5C674.708 83 681.875 90.1667 686.375 102C689.375 109.667 690.792 118.167 690.625 127.5V136.75ZM634.875 71.5C646.375 71.5 655.625 69.3333 662.625 65C669.625 60.5 673.125 53.8333 673.125 45C673.125 36.8333 670.375 30.6667 664.875 26.5C658.375 21.8333 648.042 19.5 633.875 19.5H597.875V71.5H634.875ZM814.125 5.75C816.125 2.58333 818.625 1 821.625 1C824.792 1 827.208 1.91667 828.875 3.75C830.542 5.58333 831.375 7.66667 831.375 10C831.375 12.3333 830.792 14.3333 829.625 16L780.625 84.5V136.75C780.625 139.25 779.708 141.417 777.875 143.25C776.042 145.083 773.875 146 771.375 146C768.875 146 766.625 145.083 764.625 143.25C762.792 141.417 761.875 139.25 761.875 136.75V84.5L712.875 16C711.875 14.3333 711.375 12.3333 711.375 10C711.375 7.66667 712.125 5.58333 713.625 3.75C715.292 1.91667 717.625 1 720.625 1C723.792 1 726.458 2.58333 728.625 5.75L771.375 68L814.125 5.75ZM900.125 129.5C923.958 129.5 935.958 121.583 936.125 105.75C936.125 99.25 931.542 94.0833 922.375 90.25C918.375 88.5833 913.708 87.0833 908.375 85.75C903.208 84.4167 897.958 83 892.625 81.5C887.292 80 881.958 78.3333 876.625 76.5C871.292 74.5 866.625 72 862.625 69C853.625 62.1667 849.042 53.1667 848.875 42C848.875 30 853.458 20.1667 862.625 12.5C872.458 4.16667 885.625 0 902.125 0C917.125 0 930.625 2.25 942.625 6.75C946.458 8.08333 948.458 10.8333 948.625 15C948.625 17 947.875 18.9167 946.375 20.75C945.042 22.5833 943.458 23.5 941.625 23.5C939.958 23.5 937.625 23 934.625 22C925.625 18.8333 915.458 17.25 904.125 17.25C893.625 17.25 884.958 19.25 878.125 23.25C871.125 27.4167 867.625 33.1667 867.625 40.5C867.625 48.1667 872.125 54.0833 881.125 58.25C885.292 60.0833 889.958 61.6667 895.125 63C900.292 64.1667 905.625 65.4167 911.125 66.75C916.625 68.0833 921.875 69.75 926.875 71.75C932.042 73.5833 936.708 75.9167 940.875 78.75C949.875 85.25 954.458 94.75 954.625 107.25C954.625 118.917 949.875 128.417 940.375 135.75C930.708 143.25 917.958 147 902.125 147C884.792 147 868.542 143.75 853.375 137.25C851.875 136.583 850.542 135.5 849.375 134C848.208 132.333 847.625 130.5 847.625 128.5C847.625 126.5 848.375 124.667 849.875 123C851.375 121.167 853.042 120.25 854.875 120.25C856.875 120.25 859.292 120.917 862.125 122.25C865.125 123.583 869.958 125.167 876.625 127C883.292 128.667 891.125 129.5 900.125 129.5ZM1074.38 127.5C1076.71 127.5 1078.71 128.417 1080.38 130.25C1082.21 131.917 1083.12 134 1083.12 136.5C1083.12 138.833 1082.21 140.833 1080.38 142.5C1078.71 144.167 1076.71 145 1074.38 145H992.125C989.625 145 987.458 144.083 985.625 142.25C983.792 140.417 982.875 138.25 982.875 135.75V11.5C982.875 9 983.792 6.83333 985.625 5C987.458 3 989.625 2 992.125 2H1074.38C1076.71 2 1078.71 2.91667 1080.38 4.75C1082.21 6.41667 1083.12 8.41667 1083.12 10.75C1083.12 13.0833 1082.21 15.1667 1080.38 17C1078.71 18.6667 1076.71 19.5 1074.38 19.5H1001.62V64.75H1066.88C1069.21 64.75 1071.21 65.5833 1072.88 67.25C1074.71 68.9167 1075.62 71 1075.62 73.5C1075.62 75.8333 1074.79 77.9167 1073.12 79.75C1071.46 81.4167 1069.38 82.25 1066.88 82.25H1001.62V127.5H1074.38Z" fill="#EEEEEE"/>
</svg>
