<svg width="1680" height="253" viewBox="0 0 1680 253" fill="none" xmlns="http://www.w3.org/2000/svg">
<path d="M465.469 184.375C466.719 183.75 468.594 183.438 471.094 183.438C473.594 183.438 475.781 184.479 477.656 186.562C479.531 188.438 480.469 190.625 480.469 193.125C480.469 197.708 478.49 201.042 474.531 203.125C466.615 207.708 458.073 211.458 448.906 214.375C439.948 217.292 429.01 218.75 416.094 218.75C403.385 218.75 391.51 216.667 380.469 212.5C369.635 208.333 360.26 202.292 352.344 194.375C335.26 177.708 326.719 155.208 326.719 126.875C326.719 98.75 335.26 76.25 352.344 59.375C368.802 43.125 390.156 35 416.406 35C429.115 35 439.948 36.5625 448.906 39.6875C458.073 42.8125 465.052 45.7292 469.844 48.4375C474.635 50.9375 477.552 53.0208 478.594 54.6875C479.844 56.1458 480.469 58.125 480.469 60.625C480.469 63.125 479.531 65.4167 477.656 67.5C475.781 69.375 473.594 70.3125 471.094 70.3125C468.802 70.3125 466.927 70 465.469 69.375C458.594 65.625 451.51 62.7083 444.219 60.625C437.135 58.3333 428.281 57.1875 417.656 57.1875C407.031 57.1875 397.344 59.0625 388.594 62.8125C380.052 66.3542 372.865 71.25 367.031 77.5C355.573 90 349.948 106.458 350.156 126.875C350.156 147.292 355.781 163.75 367.031 176.25C379.531 189.792 396.719 196.562 418.594 196.562C428.594 196.562 437.135 195.521 444.219 193.438C451.51 191.146 458.594 188.125 465.469 184.375Z" fill="#EEEEEE"/>
<path d="M649.531 36.25C652.656 36.25 655.365 37.3958 657.656 39.6875C660.156 41.9792 661.406 44.7917 661.406 48.125V149.375C661.406 171.667 653.385 189.167 637.344 201.875C623.594 213.125 607.031 218.75 587.656 218.75C568.073 218.75 551.51 213.125 537.969 201.875C522.135 188.958 514.219 171.458 514.219 149.375V48.125C514.219 45 515.365 42.2917 517.656 40C519.948 37.5 522.656 36.25 525.781 36.25C528.906 36.25 531.615 37.3958 533.906 39.6875C536.406 41.9792 537.656 44.7917 537.656 48.125V150C537.656 165.208 542.865 177.083 553.281 185.625C562.865 193.542 574.323 197.5 587.656 197.5C601.198 197.5 612.76 193.542 622.344 185.625C632.76 176.875 637.969 165 637.969 150V48.125C637.969 45 639.115 42.2917 641.406 40C643.698 37.5 646.406 36.25 649.531 36.25Z" fill="#EEEEEE"/>
<path d="M838.594 84.0625C838.594 102.604 830.26 115.625 813.594 123.125C829.844 128.542 840.573 137.604 845.781 150.312C847.656 155.104 848.594 160.833 848.594 167.5C848.594 173.958 847.344 180.312 844.844 186.562C842.552 192.604 838.802 197.917 833.594 202.5C822.552 211.667 805.573 216.25 782.656 216.25H720.781C717.656 216.25 714.948 215.104 712.656 212.812C710.365 210.521 709.219 207.812 709.219 204.688V49.375C709.219 46.25 710.365 43.5417 712.656 41.25C714.948 38.75 717.656 37.5 720.781 37.5H781.406C800.156 37.5 814.323 41.875 823.906 50.625C833.698 59.1667 838.594 70.3125 838.594 84.0625ZM816.406 85.625C816.406 77.7083 813.177 71.3542 806.719 66.5625C800.469 61.7708 791.406 59.375 779.531 59.375H732.656V114.688H775.156C797.24 114.688 810.365 108.854 814.531 97.1875C815.781 93.6458 816.406 89.7917 816.406 85.625ZM780.469 194.375C804.635 194.375 819.115 188.542 823.906 176.875C825.365 173.125 826.094 169.167 826.094 165C826.094 154.792 822.24 147.396 814.531 142.812C806.823 138.021 795.573 135.625 780.781 135.625H732.656V194.375H780.469Z" fill="#EEEEEE"/>
<path d="M1000.78 194.375C1003.7 194.375 1006.2 195.521 1008.28 197.812C1010.57 199.896 1011.72 202.5 1011.72 205.625C1011.72 208.542 1010.57 211.042 1008.28 213.125C1006.2 215.208 1003.7 216.25 1000.78 216.25H897.969C894.844 216.25 892.135 215.104 889.844 212.812C887.552 210.521 886.406 207.812 886.406 204.688V49.375C886.406 46.25 887.552 43.5417 889.844 41.25C892.135 38.75 894.844 37.5 897.969 37.5H1000.78C1003.7 37.5 1006.2 38.6458 1008.28 40.9375C1010.57 43.0208 1011.72 45.5208 1011.72 48.4375C1011.72 51.3542 1010.57 53.9583 1008.28 56.25C1006.2 58.3333 1003.7 59.375 1000.78 59.375H909.844V115.938H991.406C994.323 115.938 996.823 116.979 998.906 119.062C1001.2 121.146 1002.34 123.75 1002.34 126.875C1002.34 129.792 1001.3 132.396 999.219 134.688C997.135 136.771 994.531 137.812 991.406 137.812H909.844V194.375H1000.78Z" fill="#EEEEEE"/>
<path d="M1188.91 205.938C1188.91 209.062 1187.76 211.771 1185.47 214.062C1183.39 216.354 1180.57 217.5 1177.03 217.5C1173.7 217.5 1170.89 216.458 1168.59 214.375C1166.51 212.292 1165.47 209.479 1165.47 205.938V198.125C1165.47 184.375 1163.91 174.271 1160.78 167.812C1157.86 161.354 1153.7 156.25 1148.28 152.5C1143.07 148.542 1135.57 146.562 1125.78 146.562H1072.97V205.938C1072.97 209.062 1071.82 211.771 1069.53 214.062C1067.24 216.354 1064.43 217.5 1061.09 217.5C1057.97 217.5 1055.26 216.354 1052.97 214.062C1050.68 211.771 1049.53 209.062 1049.53 205.938V49.375C1049.53 46.25 1050.68 43.5417 1052.97 41.25C1055.26 38.75 1057.97 37.5 1061.09 37.5H1120.78C1144.11 37.5 1161.82 42.5 1173.91 52.5C1185.16 61.875 1190.68 74.1667 1190.47 89.375C1190.47 99.1667 1187.66 108.438 1182.03 117.188C1176.61 125.729 1168.18 131.875 1156.72 135.625C1169.01 138.75 1177.97 147.708 1183.59 162.5C1187.34 172.083 1189.11 182.708 1188.91 194.375V205.938ZM1119.22 124.375C1133.59 124.375 1145.16 121.667 1153.91 116.25C1162.66 110.625 1167.03 102.292 1167.03 91.25C1167.03 81.0417 1163.59 73.3333 1156.72 68.125C1148.59 62.2917 1135.68 59.375 1117.97 59.375H1072.97V124.375H1119.22Z" fill="#EEEEEE"/>
<path d="M1343.28 42.1875C1345.78 38.2292 1348.91 36.25 1352.66 36.25C1356.61 36.25 1359.64 37.3958 1361.72 39.6875C1363.8 41.9792 1364.84 44.5833 1364.84 47.5C1364.84 50.4167 1364.11 52.9167 1362.66 55L1301.41 140.625V205.938C1301.41 209.062 1300.26 211.771 1297.97 214.062C1295.68 216.354 1292.97 217.5 1289.84 217.5C1286.72 217.5 1283.91 216.354 1281.41 214.062C1279.11 211.771 1277.97 209.062 1277.97 205.938V140.625L1216.72 55C1215.47 52.9167 1214.84 50.4167 1214.84 47.5C1214.84 44.5833 1215.78 41.9792 1217.66 39.6875C1219.74 37.3958 1222.66 36.25 1226.41 36.25C1230.36 36.25 1233.7 38.2292 1236.41 42.1875L1289.84 120L1343.28 42.1875Z" fill="#EEEEEE"/>
<path d="M1450.78 196.875C1480.57 196.875 1495.57 186.979 1495.78 167.188C1495.78 159.062 1490.05 152.604 1478.59 147.812C1473.59 145.729 1467.76 143.854 1461.09 142.188C1454.64 140.521 1448.07 138.75 1441.41 136.875C1434.74 135 1428.07 132.917 1421.41 130.625C1414.74 128.125 1408.91 125 1403.91 121.25C1392.66 112.708 1386.93 101.458 1386.72 87.5C1386.72 72.5 1392.45 60.2083 1403.91 50.625C1416.2 40.2083 1432.66 35 1453.28 35C1472.03 35 1488.91 37.8125 1503.91 43.4375C1508.7 45.1042 1511.2 48.5417 1511.41 53.75C1511.41 56.25 1510.47 58.6458 1508.59 60.9375C1506.93 63.2292 1504.95 64.375 1502.66 64.375C1500.57 64.375 1497.66 63.75 1493.91 62.5C1482.66 58.5417 1469.95 56.5625 1455.78 56.5625C1442.66 56.5625 1431.82 59.0625 1423.28 64.0625C1414.53 69.2708 1410.16 76.4583 1410.16 85.625C1410.16 95.2083 1415.78 102.604 1427.03 107.812C1432.24 110.104 1438.07 112.083 1444.53 113.75C1450.99 115.208 1457.66 116.771 1464.53 118.438C1471.41 120.104 1477.97 122.188 1484.22 124.688C1490.68 126.979 1496.51 129.896 1501.72 133.438C1512.97 141.562 1518.7 153.438 1518.91 169.062C1518.91 183.646 1512.97 195.521 1501.09 204.688C1489.01 214.062 1473.07 218.75 1453.28 218.75C1431.61 218.75 1411.3 214.688 1392.34 206.562C1390.47 205.729 1388.8 204.375 1387.34 202.5C1385.89 200.417 1385.16 198.125 1385.16 195.625C1385.16 193.125 1386.09 190.833 1387.97 188.75C1389.84 186.458 1391.93 185.312 1394.22 185.312C1396.72 185.312 1399.74 186.146 1403.28 187.812C1407.03 189.479 1413.07 191.458 1421.41 193.75C1429.74 195.833 1439.53 196.875 1450.78 196.875Z" fill="#EEEEEE"/>
<path d="M1668.59 194.375C1671.51 194.375 1674.01 195.521 1676.09 197.812C1678.39 199.896 1679.53 202.5 1679.53 205.625C1679.53 208.542 1678.39 211.042 1676.09 213.125C1674.01 215.208 1671.51 216.25 1668.59 216.25H1565.78C1562.66 216.25 1559.95 215.104 1557.66 212.812C1555.36 210.521 1554.22 207.812 1554.22 204.688V49.375C1554.22 46.25 1555.36 43.5417 1557.66 41.25C1559.95 38.75 1562.66 37.5 1565.78 37.5H1668.59C1671.51 37.5 1674.01 38.6458 1676.09 40.9375C1678.39 43.0208 1679.53 45.5208 1679.53 48.4375C1679.53 51.3542 1678.39 53.9583 1676.09 56.25C1674.01 58.3333 1671.51 59.375 1668.59 59.375H1577.66V115.938H1659.22C1662.14 115.938 1664.64 116.979 1666.72 119.062C1669.01 121.146 1670.16 123.75 1670.16 126.875C1670.16 129.792 1669.11 132.396 1667.03 134.688C1664.95 136.771 1662.34 137.812 1659.22 137.812H1577.66V194.375H1668.59Z" fill="#EEEEEE"/>
<g clip-path="url(#clip0_37_50)">
<mask id="mask0_37_50" style="mask-type:luminance" maskUnits="userSpaceOnUse" x="0" y="0" width="248" height="253">
<path d="M248 0H0V253H248V0Z" fill="white"/>
</mask>
<g mask="url(#mask0_37_50)">
<mask id="mask1_37_50" style="mask-type:luminance" maskUnits="userSpaceOnUse" x="0" y="0" width="248" height="253">
<path d="M248 0H0V253H248V0Z" fill="white"/>
</mask>
<g mask="url(#mask1_37_50)">
<path d="M124 116.095L240.007 62" stroke="#EEEEEE" stroke-width="16" stroke-linecap="round"/>
<path d="M124 244.095L240.007 190" stroke="#EEEEEE" stroke-width="16" stroke-linecap="round"/>
<path d="M66 35.0476L124.004 8" stroke="#EEEEEE" stroke-width="16" stroke-linecap="round"/>
<path d="M8 62L124.007 116.095" stroke="#EEEEEE" stroke-width="16" stroke-linecap="round"/>
<path d="M124 8L240.007 62.0951" stroke="#EEEEEE" stroke-width="16" stroke-linecap="round"/>
<path d="M8 190L66.0037 217.048" stroke="#EEEEEE" stroke-width="16" stroke-linecap="round"/>
<path d="M8.00001 62L8 190" stroke="#EEEEEE" stroke-width="16" stroke-linecap="round"/>
<path d="M124 116V244" stroke="#EEEEEE" stroke-width="16" stroke-linecap="round"/>
<path d="M240 126V190" stroke="#EEEEEE" stroke-width="16" stroke-linecap="round"/>
</g>
</g>
</g>
<defs>
<clipPath id="clip0_37_50">
<rect width="248" height="253" fill="white"/>
</clipPath>
</defs>
</svg>
