<svg width="4086" height="1024" viewBox="0 0 4086 1024" fill="none" xmlns="http://www.w3.org/2000/svg">
<g clip-path="url(#clip0_46_2)">
<rect width="4086" height="1024" fill="#111111"/>
<path d="M172 178.095L288.007 124M172 306.095L288.007 252M114 97.0476L172.004 70M172.007 178.095L56 124V252L114.004 279.048M172 70L288.007 124.095M172 178V306M288 188L288 252" stroke="white" stroke-opacity="0.05" stroke-width="16" stroke-linecap="round"/>
<path d="M839 578.095L955.007 524M839 706.095L955.007 652M781 497.048L839.004 470M839.007 578.095L723 524V652L781.004 679.048M839 470L955.007 524.095M839 578V706M955 588L955 652" stroke="white" stroke-opacity="0.05" stroke-width="16" stroke-linecap="round"/>
<path d="M512 853.095L628.007 799M512 981.095L628.007 927M454 772.048L512.004 745M512.007 853.095L396 799V927L454.004 954.048M512 745L628.007 799.095M512 853V981M628 863L628 927" stroke="white" stroke-opacity="0.05" stroke-width="16" stroke-linecap="round"/>
<circle cx="809" cy="70" r="256" fill="white" fill-opacity="0.05"/>
<circle cx="231" cy="512" r="128" fill="white" fill-opacity="0.05"/>
<circle cx="44" cy="954" r="128" fill="white" fill-opacity="0.05"/>
<circle opacity="0.6" cx="3337" cy="1637" r="2048" fill="#0055BB"/>
<circle opacity="0.1" cx="2494" cy="2369" r="2043" fill="#0055BB"/>
<circle opacity="0.1" cx="2852" cy="1918" r="2043" fill="#0055BB"/>
<circle opacity="0.1" cx="2439" cy="2683" r="2043" fill="black"/>
<circle opacity="0.1" cx="2852" cy="76" r="512" fill="black"/>
<circle opacity="0.1" cx="3201" cy="512" r="1024" fill="black"/>
<circle opacity="0.1" cx="2846" cy="1155" r="1024" fill="black"/>
<circle opacity="0.2" cx="3865" cy="1918" r="2043" fill="black"/>
<circle opacity="0.2" cx="4220" cy="1857" r="2043" fill="black"/>
<path d="M1524 753.5C1350.8 912.3 1121.17 1027 1028 1064.5V1245L4224.5 1335V-225C3999.17 86 3516 717.1 3386 753.5C3223.5 799 2917 600 2682.5 514.5C2448 429 1740.5 555 1524 753.5Z" fill="#0055BB"/>
<circle opacity="0.2" cx="3373" cy="2043" r="2043" fill="black"/>
<circle opacity="0.2" cx="4627" cy="1746" r="2043" fill="black"/>
<path opacity="0.5" d="M3146.5 826.708C2342.1 606.708 1413.67 822.375 1050 957.708C1342.4 452.908 3384.17 338.375 4368.5 344.208V1065.71C4296.33 1077.71 3950.9 1046.71 3146.5 826.708Z" fill="#0055BB"/>
</g>
<defs>
<clipPath id="clip0_46_2">
<rect width="4086" height="1024" fill="white"/>
</clipPath>
</defs>
</svg>
