<svg width="512" height="512" viewBox="0 0 512 512" fill="none" xmlns="http://www.w3.org/2000/svg">
<rect x="68" y="324" width="88" height="120" rx="12" stroke="black" stroke-width="8"/>
<path d="M121.023 335.455V382H111.182V344.795H110.909L100.25 351.477V342.75L111.773 335.455H121.023Z" fill="#0055BB"/>
<rect x="212" y="196" width="88" height="248" rx="12" stroke="black" stroke-width="8"/>
<path d="M240.773 254V246.909L257.341 231.568C258.75 230.205 259.932 228.977 260.886 227.886C261.856 226.795 262.591 225.727 263.091 224.682C263.591 223.621 263.841 222.477 263.841 221.25C263.841 219.886 263.53 218.712 262.909 217.727C262.288 216.727 261.439 215.962 260.364 215.432C259.288 214.886 258.068 214.614 256.705 214.614C255.28 214.614 254.038 214.902 252.977 215.477C251.917 216.053 251.098 216.879 250.523 217.955C249.947 219.03 249.659 220.311 249.659 221.795H240.318C240.318 218.75 241.008 216.106 242.386 213.864C243.765 211.621 245.697 209.886 248.182 208.659C250.667 207.432 253.53 206.818 256.773 206.818C260.106 206.818 263.008 207.409 265.477 208.591C267.962 209.758 269.894 211.379 271.273 213.455C272.652 215.53 273.341 217.909 273.341 220.591C273.341 222.348 272.992 224.083 272.295 225.795C271.614 227.508 270.394 229.409 268.636 231.5C266.879 233.576 264.402 236.068 261.205 238.977L254.409 245.636V245.955H273.955V254H240.773Z" fill="#0055BB"/>
<rect x="356" y="68" width="88" height="376" rx="12" stroke="black" stroke-width="8"/>
<path d="M400.977 126.636C397.583 126.636 394.561 126.053 391.909 124.886C389.273 123.705 387.189 122.083 385.659 120.023C384.144 117.947 383.364 115.553 383.318 112.841H393.227C393.288 113.977 393.659 114.977 394.341 115.841C395.038 116.689 395.962 117.348 397.114 117.818C398.265 118.288 399.561 118.523 401 118.523C402.5 118.523 403.826 118.258 404.977 117.727C406.129 117.197 407.03 116.462 407.682 115.523C408.333 114.583 408.659 113.5 408.659 112.273C408.659 111.03 408.311 109.932 407.614 108.977C406.932 108.008 405.947 107.25 404.659 106.705C403.386 106.159 401.871 105.886 400.114 105.886H395.773V98.6591H400.114C401.598 98.6591 402.909 98.4015 404.045 97.8864C405.197 97.3712 406.091 96.6591 406.727 95.75C407.364 94.8258 407.682 93.75 407.682 92.5227C407.682 91.3561 407.402 90.3333 406.841 89.4545C406.295 88.5606 405.523 87.8636 404.523 87.3636C403.538 86.8636 402.386 86.6136 401.068 86.6136C399.735 86.6136 398.515 86.8561 397.409 87.3409C396.303 87.8106 395.417 88.4848 394.75 89.3636C394.083 90.2424 393.727 91.2727 393.682 92.4545H384.25C384.295 89.7727 385.061 87.4091 386.545 85.3636C388.03 83.3182 390.03 81.7197 392.545 80.5682C395.076 79.4015 397.932 78.8182 401.114 78.8182C404.326 78.8182 407.136 79.4015 409.545 80.5682C411.955 81.7348 413.826 83.3106 415.159 85.2955C416.508 87.2652 417.174 89.4773 417.159 91.9318C417.174 94.5379 416.364 96.7121 414.727 98.4545C413.106 100.197 410.992 101.303 408.386 101.773V102.136C411.811 102.576 414.417 103.765 416.205 105.705C418.008 107.629 418.902 110.038 418.886 112.932C418.902 115.583 418.136 117.939 416.591 120C415.061 122.061 412.947 123.682 410.25 124.864C407.553 126.045 404.462 126.636 400.977 126.636Z" fill="#0055BB"/>
</svg>
