<svg width="1024" height="1024" viewBox="0 0 1024 1024" fill="none" xmlns="http://www.w3.org/2000/svg">
<g clip-path="url(#clip0_41_116)">
<rect width="1024" height="1024" fill="white"/>
<path d="M172 178.095L288.007 124M172 306.095L288.007 252M114 97.0476L172.004 70M172.007 178.095L56 124V252L114.004 279.048M172 70L288.007 124.095M172 178V306M288 188L288 252" stroke="black" stroke-opacity="0.05" stroke-width="16" stroke-linecap="round"/>
<path d="M1012 578.095L1128.01 524M1012 706.095L1128.01 652M954 497.048L1012 470M1012.01 578.095L896 524V652L954.004 679.048M1012 470L1128.01 524.095M1012 578V706M1128 588L1128 652" stroke="black" stroke-opacity="0.05" stroke-width="16" stroke-linecap="round"/>
<path d="M512 853.095L628.007 799M512 981.095L628.007 927M454 772.048L512.004 745M512.007 853.095L396 799V927L454.004 954.048M512 745L628.007 799.095M512 853V981M628 863L628 927" stroke="black" stroke-opacity="0.05" stroke-width="16" stroke-linecap="round"/>
<circle cx="809" cy="70" r="256" fill="black" fill-opacity="0.05"/>
<circle cx="231" cy="512" r="128" fill="black" fill-opacity="0.05"/>
<circle cx="44" cy="954" r="128" fill="black" fill-opacity="0.05"/>
</g>
<defs>
<clipPath id="clip0_41_116">
<rect width="1024" height="1024" fill="white"/>
</clipPath>
</defs>
</svg>
